  0
SECTION
  2
HEADER
  9
$ACADVER
  1
AC1009
  9
$INSBASE
 10
0.0
 20
0.0
 30
0.0
  9
$EXTMIN
 10
0.0
 20
0.0
 30
0.0
  9
$EXTMAX
 10
100.0
 20
100.0
 30
0.0
  9
$UNITMODE
 70
0
  9
$AUNITS
 70
0
  9
$ANGBASE
 50
0.0
  9
$ANGDIR
 70
0
  0
ENDSEC
  0
SECTION
  2
TABLES
  0
TABLE
  2
LTYPE
 70
19
  0
LTYPE
  2
CONTINUOUS
 70
0
  3
Solid
 72
65
 73
0
 40
0.0
  0
LTYPE
  2
CENTER
 70
0
  3
Center ____ _ ____ _ ____ _ ____ _ ____ _ ____
 72
65
 73
4
 40
2.0
 49
1.25
 49
-0.25
 49
0.25
 49
-0.25
  0
LTYPE
  2
CENTERX2
 70
0
  3
Center (2x) ________  __  ________  __  ________
 72
65
 73
4
 40
3.5
 49
2.5
 49
-0.25
 49
0.5
 49
-0.25
  0
LTYPE
  2
CENTER2
 70
0
  3
Center (.5x) ____ _ ____ _ ____ _ ____ _ ____
 72
65
 73
4
 40
1.0
 49
0.625
 49
-0.125
 49
0.125
 49
-0.125
  0
LTYPE
  2
DASHED
 70
0
  3
Dashed __ __ __ __ __ __ __ __ __ __ __ __ __ _
 72
65
 73
2
 40
0.6
 49
0.5
 49
-0.1
  0
LTYPE
  2
DASHEDX2
 70
0
  3
Dashed (2x) ____  ____  ____  ____  ____  ____
 72
65
 73
2
 40
1.2
 49
1.0
 49
-0.2
  0
LTYPE
  2
DASHED2
 70
0
  3
Dashed (.5x) _ _ _ _ _ _ _ _ _ _ _ _ _ _
 72
65
 73
2
 40
0.3
 49
0.25
 49
-0.05
  0
LTYPE
  2
PHANTOM
 70
0
  3
Phantom ______  __  __  ______  __  __  ______
 72
65
 73
6
 40
2.5
 49
1.25
 49
-0.25
 49
0.25
 49
-0.25
 49
0.25
 49
-0.25
  0
LTYPE
  2
PHANTOMX2
 70
0
  3
Phantom (2x)____________    ____    ____    ____________
 72
65
 73
6
 40
4.25
 49
2.5
 49
-0.25
 49
0.5
 49
-0.25
 49
0.5
 49
-0.25
  0
LTYPE
  2
PHANTOM2
 70
0
  3
Phantom (.5x) ___ _ _ ___ _ _ ___ _ _ ___ _ _ ___
 72
65
 73
6
 40
1.25
 49
0.625
 49
-0.125
 49
0.125
 49
-0.125
 49
0.125
 49
-0.125
  0
LTYPE
  2
DASHDOT
 70
0
  3
Dash dot __ . __ . __ . __ . __ . __ . __ . __
 72
65
 73
4
 40
1.4
 49
1.0
 49
-0.2
 49
0.0
 49
-0.2
  0
LTYPE
  2
DASHDOTX2
 70
0
  3
Dash dot (2x) ____  .  ____  .  ____  .  ____
 72
65
 73
4
 40
2.4
 49
2.0
 49
-0.2
 49
0.0
 49
-0.2
  0
LTYPE
  2
DASHDOT2
 70
0
  3
Dash dot (.5x) _ . _ . _ . _ . _ . _ . _ . _
 72
65
 73
4
 40
0.7
 49
0.5
 49
-0.1
 49
0.0
 49
-0.1
  0
LTYPE
  2
DOT
 70
0
  3
Dot .  .  .  .  .  .  .  .  .  .  .  .  .  .  .  .
 72
65
 73
2
 40
0.2
 49
0.0
 49
-0.2
  0
LTYPE
  2
DOTX2
 70
0
  3
Dot (2x) .    .    .    .    .    .    .    . 
 72
65
 73
2
 40
0.4
 49
0.0
 49
-0.4
  0
LTYPE
  2
DOT2
 70
0
  3
Dot (.5) . . . . . . . . . . . . . . . . . . . 
 72
65
 73
2
 40
0.1
 49
0.0
 49
-0.1
  0
LTYPE
  2
DIVIDE
 70
0
  3
Divide __ . . __ . . __ . . __ . . __ . . __
 72
65
 73
6
 40
1.6
 49
1.0
 49
-0.2
 49
0.0
 49
-0.2
 49
0.0
 49
-0.2
  0
LTYPE
  2
DIVIDEX2
 70
0
  3
Divide (2x) ____  . .  ____  . .  ____  . .  ____
 72
65
 73
6
 40
2.6
 49
2.0
 49
-0.2
 49
0.0
 49
-0.2
 49
0.0
 49
-0.2
  0
LTYPE
  2
DIVIDE2
 70
0
  3
Divide(.5x) _ . _ . _ . _ . _ . _ . _ . _
 72
65
 73
6
 40
0.8
 49
0.5
 49
-0.1
 49
0.0
 49
-0.1
 49
0.0
 49
-0.1
  0
ENDTAB
  0
TABLE
  2
LAYER
 70
5
  0
LAYER
  2
DIMENSIONS
 70
0
 62
1
  6
CONTINUOUS
  0
LAYER
  2
TABLEBACKGROUND
 70
0
 62
1
  6
CONTINUOUS
  0
LAYER
  2
TABLECONTENT
 70
0
 62
1
  6
CONTINUOUS
  0
LAYER
  2
TABLEGRID
 70
0
 62
1
  6
CONTINUOUS
  0
LAYER
  2
VIEWPORTS
 70
0
 62
7
  6
CONTINUOUS
  0
ENDTAB
  0
TABLE
  2
STYLE
 70
12
  0
STYLE
  2
STANDARD
 70
0
 40
0.0
 41
1.0
 42
1.0
 50
0.0
 71
0
  3
arial.ttf
  4

  0
STYLE
  2
ARIAL
 70
0
 40
0.0
 41
1.0
 42
1.0
 50
0.0
 71
0
  3
arial.ttf
  4

  0
STYLE
  2
ARIAL_BOLD
 70
0
 40
0.0
 41
1.0
 42
1.0
 50
0.0
 71
0
  3
arialbd.ttf
  4

  0
STYLE
  2
ARIAL_ITALIC
 70
0
 40
0.0
 41
1.0
 42
1.0
 50
0.0
 71
0
  3
ariali.ttf
  4

  0
STYLE
  2
ARIAL_BOLD_ITALIC
 70
0
 40
0.0
 41
1.0
 42
1.0
 50
0.0
 71
0
  3
arialbi.ttf
  4

  0
STYLE
  2
ARIAL_BLACK
 70
0
 40
0.0
 41
1.0
 42
1.0
 50
0.0
 71
0
  3
ariblk.ttf
  4

  0
STYLE
  2
ISOCPEUR
 70
0
 40
0.0
 41
1.0
 42
1.0
 50
0.0
 71
0
  3
isocpeur.ttf
  4

  0
STYLE
  2
ISOCPEUR_ITALIC
 70
0
 40
0.0
 41
1.0
 42
1.0
 50
0.0
 71
0
  3
isocpeui.ttf
  4

  0
STYLE
  2
TIMES
 70
0
 40
0.0
 41
1.0
 42
1.0
 50
0.0
 71
0
  3
times.ttf
  4

  0
STYLE
  2
TIMES_BOLD
 70
0
 40
0.0
 41
1.0
 42
1.0
 50
0.0
 71
0
  3
timesbd.ttf
  4

  0
STYLE
  2
TIMES_ITALIC
 70
0
 40
0.0
 41
1.0
 42
1.0
 50
0.0
 71
0
  3
timesi.ttf
  4

  0
STYLE
  2
TIMES_BOLD_ITALIC
 70
0
 40
0.0
 41
1.0
 42
1.0
 50
0.0
 71
0
  3
timesbi.ttf
  4

  0
ENDTAB
  0
TABLE
  2
VIEW
 70
0
  0
ENDTAB
  0
TABLE
  2
APPID
 70
1
  0
APPID
  2
DXFWRITE
 70
0
  0
ENDTAB
  0
TABLE
  2
VPORT
 70
0
  0
ENDTAB
  0
TABLE
  2
UCS
 70
0
  0
ENDTAB
  0
ENDSEC
  0
SECTION
  2
BLOCKS
  0
ENDSEC
  0
SECTION
  2
ENTITIES
  0
VIEWPORT
  8
VIEWPORTS
 67
1
 10
0.0
 20
0.0
 30
0.0
 40
1.0
 41
1.0
 68
1
 69
1
1001
ACAD
1000
MVIEW
1002
{
1070
16
1010
0.0
1020
0.0
1030
0.0
1010
0.0
1020
0.0
1030
0.0
1040
0.0
1040
1.0
1040
0.0
1040
0.0
1040
50.0
1040
0.0
1040
0.0
1070
0
1070
100
1070
1
1070
3
1070
0
1070
0
1070
0
1070
0
1040
0.0
1040
0.0
1040
0.0
1040
0.1
1040
0.1
1040
0.1
1040
0.1
1070
0
1002
{
1002
}
1002
}
  0
LINE
  8
0
 10
0.0
 20
-0.0
 30
0.0
 11
0.20400000000000001
 21
-0.0
 31
0.0
  0
LINE
  8
0
 10
0.27
 20
-0.0
 30
0.0
 11
0.294
 21
-0.0
 31
0.0
  0
LINE
  8
0
 10
0.33
 20
-0.0
 30
0.0
 11
0.384
 21
-0.0
 31
0.0
  0
LINE
  8
0
 10
0.42
 20
-0.0
 30
0.0
 11
0.624
 21
-0.0
 31
0.0
  0
LINE
  8
0
 10
0.624
 20
-0.006
 30
0.0
 11
0.42
 21
-0.006
 31
0.0
  0
LINE
  8
0
 10
0.384
 20
-0.006
 30
0.0
 11
0.33
 21
-0.006
 31
0.0
  0
LINE
  8
0
 10
0.294
 20
-0.006
 30
0.0
 11
0.27
 21
-0.006
 31
0.0
  0
LINE
  8
0
 10
0.20400000000000001
 20
-0.006
 30
0.0
 11
0.0
 21
-0.006
 31
0.0
  0
LINE
  8
0
 10
0.0
 20
-0.012
 30
0.0
 11
0.20400000000000001
 21
-0.012
 31
0.0
  0
LINE
  8
0
 10
0.27
 20
-0.012
 30
0.0
 11
0.294
 21
-0.012
 31
0.0
  0
LINE
  8
0
 10
0.33
 20
-0.012
 30
0.0
 11
0.384
 21
-0.012
 31
0.0
  0
LINE
  8
0
 10
0.42
 20
-0.012
 30
0.0
 11
0.624
 21
-0.012
 31
0.0
  0
LINE
  8
0
 10
0.624
 20
-0.018000000000000002
 30
0.0
 11
0.42
 21
-0.018000000000000002
 31
0.0
  0
LINE
  8
0
 10
0.384
 20
-0.018000000000000002
 30
0.0
 11
0.33
 21
-0.018000000000000002
 31
0.0
  0
LINE
  8
0
 10
0.294
 20
-0.018000000000000002
 30
0.0
 11
0.27
 21
-0.018000000000000002
 31
0.0
  0
LINE
  8
0
 10
0.20400000000000001
 20
-0.018000000000000002
 30
0.0
 11
0.0
 21
-0.018000000000000002
 31
0.0
  0
LINE
  8
0
 10
0.0
 20
-0.024
 30
0.0
 11
0.20400000000000001
 21
-0.024
 31
0.0
  0
LINE
  8
0
 10
0.27
 20
-0.024
 30
0.0
 11
0.294
 21
-0.024
 31
0.0
  0
LINE
  8
0
 10
0.33
 20
-0.024
 30
0.0
 11
0.384
 21
-0.024
 31
0.0
  0
LINE
  8
0
 10
0.42
 20
-0.024
 30
0.0
 11
0.624
 21
-0.024
 31
0.0
  0
LINE
  8
0
 10
0.624
 20
-0.03
 30
0.0
 11
0.6
 21
-0.03
 31
0.0
  0
LINE
  8
0
 10
0.444
 20
-0.03
 30
0.0
 11
0.42
 21
-0.03
 31
0.0
  0
LINE
  8
0
 10
0.384
 20
-0.03
 30
0.0
 11
0.36
 21
-0.03
 31
0.0
  0
LINE
  8
0
 10
0.294
 20
-0.03
 30
0.0
 11
0.27
 21
-0.03
 31
0.0
  0
LINE
  8
0
 10
0.20400000000000001
 20
-0.03
 30
0.0
 11
0.18
 21
-0.03
 31
0.0
  0
LINE
  8
0
 10
0.024
 20
-0.03
 30
0.0
 11
0.0
 21
-0.03
 31
0.0
  0
LINE
  8
0
 10
0.0
 20
-0.036000000000000004
 30
0.0
 11
0.024
 21
-0.036000000000000004
 31
0.0
  0
LINE
  8
0
 10
0.18
 20
-0.036000000000000004
 30
0.0
 11
0.20400000000000001
 21
-0.036000000000000004
 31
0.0
  0
LINE
  8
0
 10
0.27
 20
-0.036000000000000004
 30
0.0
 11
0.294
 21
-0.036000000000000004
 31
0.0
  0
LINE
  8
0
 10
0.36
 20
-0.036000000000000004
 30
0.0
 11
0.384
 21
-0.036000000000000004
 31
0.0
  0
LINE
  8
0
 10
0.42
 20
-0.036000000000000004
 30
0.0
 11
0.444
 21
-0.036000000000000004
 31
0.0
  0
LINE
  8
0
 10
0.6
 20
-0.036000000000000004
 30
0.0
 11
0.624
 21
-0.036000000000000004
 31
0.0
  0
LINE
  8
0
 10
0.624
 20
-0.042
 30
0.0
 11
0.6
 21
-0.042
 31
0.0
  0
LINE
  8
0
 10
0.444
 20
-0.042
 30
0.0
 11
0.42
 21
-0.042
 31
0.0
  0
LINE
  8
0
 10
0.384
 20
-0.042
 30
0.0
 11
0.36
 21
-0.042
 31
0.0
  0
LINE
  8
0
 10
0.294
 20
-0.042
 30
0.0
 11
0.27
 21
-0.042
 31
0.0
  0
LINE
  8
0
 10
0.20400000000000001
 20
-0.042
 30
0.0
 11
0.18
 21
-0.042
 31
0.0
  0
LINE
  8
0
 10
0.024
 20
-0.042
 30
0.0
 11
0.0
 21
-0.042
 31
0.0
  0
LINE
  8
0
 10
0.0
 20
-0.048
 30
0.0
 11
0.024
 21
-0.048
 31
0.0
  0
LINE
  8
0
 10
0.18
 20
-0.048
 30
0.0
 11
0.20400000000000001
 21
-0.048
 31
0.0
  0
LINE
  8
0
 10
0.27
 20
-0.048
 30
0.0
 11
0.294
 21
-0.048
 31
0.0
  0
LINE
  8
0
 10
0.36
 20
-0.048
 30
0.0
 11
0.384
 21
-0.048
 31
0.0
  0
LINE
  8
0
 10
0.42
 20
-0.048
 30
0.0
 11
0.444
 21
-0.048
 31
0.0
  0
LINE
  8
0
 10
0.6
 20
-0.048
 30
0.0
 11
0.624
 21
-0.048
 31
0.0
  0
LINE
  8
0
 10
0.624
 20
-0.054
 30
0.0
 11
0.6
 21
-0.054
 31
0.0
  0
LINE
  8
0
 10
0.444
 20
-0.054
 30
0.0
 11
0.42
 21
-0.054
 31
0.0
  0
LINE
  8
0
 10
0.384
 20
-0.054
 30
0.0
 11
0.36
 21
-0.054
 31
0.0
  0
LINE
  8
0
 10
0.294
 20
-0.054
 30
0.0
 11
0.27
 21
-0.054
 31
0.0
  0
LINE
  8
0
 10
0.20400000000000001
 20
-0.054
 30
0.0
 11
0.18
 21
-0.054
 31
0.0
  0
LINE
  8
0
 10
0.024
 20
-0.054
 30
0.0
 11
0.0
 21
-0.054
 31
0.0
  0
LINE
  8
0
 10
0.0
 20
-0.06
 30
0.0
 11
0.024
 21
-0.06
 31
0.0
  0
LINE
  8
0
 10
0.06
 20
-0.06
 30
0.0
 11
0.14400000000000002
 21
-0.06
 31
0.0
  0
LINE
  8
0
 10
0.18
 20
-0.06
 30
0.0
 11
0.20400000000000001
 21
-0.06
 31
0.0
  0
LINE
  8
0
 10
0.24
 20
-0.06
 30
0.0
 11
0.264
 21
-0.06
 31
0.0
  0
LINE
  8
0
 10
0.36
 20
-0.06
 30
0.0
 11
0.384
 21
-0.06
 31
0.0
  0
LINE
  8
0
 10
0.42
 20
-0.06
 30
0.0
 11
0.444
 21
-0.06
 31
0.0
  0
LINE
  8
0
 10
0.48
 20
-0.06
 30
0.0
 11
0.5640000000000001
 21
-0.06
 31
0.0
  0
LINE
  8
0
 10
0.6
 20
-0.06
 30
0.0
 11
0.624
 21
-0.06
 31
0.0
  0
LINE
  8
0
 10
0.624
 20
-0.066
 30
0.0
 11
0.6
 21
-0.066
 31
0.0
  0
LINE
  8
0
 10
0.5640000000000001
 20
-0.066
 30
0.0
 11
0.48
 21
-0.066
 31
0.0
  0
LINE
  8
0
 10
0.444
 20
-0.066
 30
0.0
 11
0.42
 21
-0.066
 31
0.0
  0
LINE
  8
0
 10
0.384
 20
-0.066
 30
0.0
 11
0.36
 21
-0.066
 31
0.0
  0
LINE
  8
0
 10
0.264
 20
-0.066
 30
0.0
 11
0.24
 21
-0.066
 31
0.0
  0
LINE
  8
0
 10
0.20400000000000001
 20
-0.066
 30
0.0
 11
0.18
 21
-0.066
 31
0.0
  0
LINE
  8
0
 10
0.14400000000000002
 20
-0.066
 30
0.0
 11
0.06
 21
-0.066
 31
0.0
  0
LINE
  8
0
 10
0.024
 20
-0.066
 30
0.0
 11
0.0
 21
-0.066
 31
0.0
  0
LINE
  8
0
 10
0.0
 20
-0.07200000000000001
 30
0.0
 11
0.024
 21
-0.07200000000000001
 31
0.0
  0
LINE
  8
0
 10
0.06
 20
-0.07200000000000001
 30
0.0
 11
0.14400000000000002
 21
-0.07200000000000001
 31
0.0
  0
LINE
  8
0
 10
0.18
 20
-0.07200000000000001
 30
0.0
 11
0.20400000000000001
 21
-0.07200000000000001
 31
0.0
  0
LINE
  8
0
 10
0.24
 20
-0.07200000000000001
 30
0.0
 11
0.264
 21
-0.07200000000000001
 31
0.0
  0
LINE
  8
0
 10
0.36
 20
-0.07200000000000001
 30
0.0
 11
0.384
 21
-0.07200000000000001
 31
0.0
  0
LINE
  8
0
 10
0.42
 20
-0.07200000000000001
 30
0.0
 11
0.444
 21
-0.07200000000000001
 31
0.0
  0
LINE
  8
0
 10
0.48
 20
-0.07200000000000001
 30
0.0
 11
0.5640000000000001
 21
-0.07200000000000001
 31
0.0
  0
LINE
  8
0
 10
0.6
 20
-0.07200000000000001
 30
0.0
 11
0.624
 21
-0.07200000000000001
 31
0.0
  0
LINE
  8
0
 10
0.624
 20
-0.078
 30
0.0
 11
0.6
 21
-0.078
 31
0.0
  0
LINE
  8
0
 10
0.5640000000000001
 20
-0.078
 30
0.0
 11
0.48
 21
-0.078
 31
0.0
  0
LINE
  8
0
 10
0.444
 20
-0.078
 30
0.0
 11
0.42
 21
-0.078
 31
0.0
  0
LINE
  8
0
 10
0.384
 20
-0.078
 30
0.0
 11
0.36
 21
-0.078
 31
0.0
  0
LINE
  8
0
 10
0.264
 20
-0.078
 30
0.0
 11
0.24
 21
-0.078
 31
0.0
  0
LINE
  8
0
 10
0.20400000000000001
 20
-0.078
 30
0.0
 11
0.18
 21
-0.078
 31
0.0
  0
LINE
  8
0
 10
0.14400000000000002
 20
-0.078
 30
0.0
 11
0.06
 21
-0.078
 31
0.0
  0
LINE
  8
0
 10
0.024
 20
-0.078
 30
0.0
 11
0.0
 21
-0.078
 31
0.0
  0
LINE
  8
0
 10
0.0
 20
-0.084
 30
0.0
 11
0.024
 21
-0.084
 31
0.0
  0
LINE
  8
0
 10
0.06
 20
-0.084
 30
0.0
 11
0.14400000000000002
 21
-0.084
 31
0.0
  0
LINE
  8
0
 10
0.18
 20
-0.084
 30
0.0
 11
0.20400000000000001
 21
-0.084
 31
0.0
  0
LINE
  8
0
 10
0.24
 20
-0.084
 30
0.0
 11
0.264
 21
-0.084
 31
0.0
  0
LINE
  8
0
 10
0.36
 20
-0.084
 30
0.0
 11
0.384
 21
-0.084
 31
0.0
  0
LINE
  8
0
 10
0.42
 20
-0.084
 30
0.0
 11
0.444
 21
-0.084
 31
0.0
  0
LINE
  8
0
 10
0.48
 20
-0.084
 30
0.0
 11
0.5640000000000001
 21
-0.084
 31
0.0
  0
LINE
  8
0
 10
0.6
 20
-0.084
 30
0.0
 11
0.624
 21
-0.084
 31
0.0
  0
LINE
  8
0
 10
0.624
 20
-0.09
 30
0.0
 11
0.6
 21
-0.09
 31
0.0
  0
LINE
  8
0
 10
0.5640000000000001
 20
-0.09
 30
0.0
 11
0.48
 21
-0.09
 31
0.0
  0
LINE
  8
0
 10
0.444
 20
-0.09
 30
0.0
 11
0.42
 21
-0.09
 31
0.0
  0
LINE
  8
0
 10
0.384
 20
-0.09
 30
0.0
 11
0.27
 21
-0.09
 31
0.0
  0
LINE
  8
0
 10
0.20400000000000001
 20
-0.09
 30
0.0
 11
0.18
 21
-0.09
 31
0.0
  0
LINE
  8
0
 10
0.14400000000000002
 20
-0.09
 30
0.0
 11
0.06
 21
-0.09
 31
0.0
  0
LINE
  8
0
 10
0.024
 20
-0.09
 30
0.0
 11
0.0
 21
-0.09
 31
0.0
  0
LINE
  8
0
 10
0.0
 20
-0.096
 30
0.0
 11
0.024
 21
-0.096
 31
0.0
  0
LINE
  8
0
 10
0.06
 20
-0.096
 30
0.0
 11
0.14400000000000002
 21
-0.096
 31
0.0
  0
LINE
  8
0
 10
0.18
 20
-0.096
 30
0.0
 11
0.20400000000000001
 21
-0.096
 31
0.0
  0
LINE
  8
0
 10
0.27
 20
-0.096
 30
0.0
 11
0.384
 21
-0.096
 31
0.0
  0
LINE
  8
0
 10
0.42
 20
-0.096
 30
0.0
 11
0.444
 21
-0.096
 31
0.0
  0
LINE
  8
0
 10
0.48
 20
-0.096
 30
0.0
 11
0.5640000000000001
 21
-0.096
 31
0.0
  0
LINE
  8
0
 10
0.6
 20
-0.096
 30
0.0
 11
0.624
 21
-0.096
 31
0.0
  0
LINE
  8
0
 10
0.624
 20
-0.10200000000000001
 30
0.0
 11
0.6
 21
-0.10200000000000001
 31
0.0
  0
LINE
  8
0
 10
0.5640000000000001
 20
-0.10200000000000001
 30
0.0
 11
0.48
 21
-0.10200000000000001
 31
0.0
  0
LINE
  8
0
 10
0.444
 20
-0.10200000000000001
 30
0.0
 11
0.42
 21
-0.10200000000000001
 31
0.0
  0
LINE
  8
0
 10
0.384
 20
-0.10200000000000001
 30
0.0
 11
0.27
 21
-0.10200000000000001
 31
0.0
  0
LINE
  8
0
 10
0.20400000000000001
 20
-0.10200000000000001
 30
0.0
 11
0.18
 21
-0.10200000000000001
 31
0.0
  0
LINE
  8
0
 10
0.14400000000000002
 20
-0.10200000000000001
 30
0.0
 11
0.06
 21
-0.10200000000000001
 31
0.0
  0
LINE
  8
0
 10
0.024
 20
-0.10200000000000001
 30
0.0
 11
0.0
 21
-0.10200000000000001
 31
0.0
  0
LINE
  8
0
 10
0.0
 20
-0.108
 30
0.0
 11
0.024
 21
-0.108
 31
0.0
  0
LINE
  8
0
 10
0.06
 20
-0.108
 30
0.0
 11
0.14400000000000002
 21
-0.108
 31
0.0
  0
LINE
  8
0
 10
0.18
 20
-0.108
 30
0.0
 11
0.20400000000000001
 21
-0.108
 31
0.0
  0
LINE
  8
0
 10
0.27
 20
-0.108
 30
0.0
 11
0.384
 21
-0.108
 31
0.0
  0
LINE
  8
0
 10
0.42
 20
-0.108
 30
0.0
 11
0.444
 21
-0.108
 31
0.0
  0
LINE
  8
0
 10
0.48
 20
-0.108
 30
0.0
 11
0.5640000000000001
 21
-0.108
 31
0.0
  0
LINE
  8
0
 10
0.6
 20
-0.108
 30
0.0
 11
0.624
 21
-0.108
 31
0.0
  0
LINE
  8
0
 10
0.624
 20
-0.114
 30
0.0
 11
0.6
 21
-0.114
 31
0.0
  0
LINE
  8
0
 10
0.5640000000000001
 20
-0.114
 30
0.0
 11
0.48
 21
-0.114
 31
0.0
  0
LINE
  8
0
 10
0.444
 20
-0.114
 30
0.0
 11
0.42
 21
-0.114
 31
0.0
  0
LINE
  8
0
 10
0.384
 20
-0.114
 30
0.0
 11
0.27
 21
-0.114
 31
0.0
  0
LINE
  8
0
 10
0.20400000000000001
 20
-0.114
 30
0.0
 11
0.18
 21
-0.114
 31
0.0
  0
LINE
  8
0
 10
0.14400000000000002
 20
-0.114
 30
0.0
 11
0.06
 21
-0.114
 31
0.0
  0
LINE
  8
0
 10
0.024
 20
-0.114
 30
0.0
 11
0.0
 21
-0.114
 31
0.0
  0
LINE
  8
0
 10
0.0
 20
-0.12
 30
0.0
 11
0.024
 21
-0.12
 31
0.0
  0
LINE
  8
0
 10
0.06
 20
-0.12
 30
0.0
 11
0.14400000000000002
 21
-0.12
 31
0.0
  0
LINE
  8
0
 10
0.18
 20
-0.12
 30
0.0
 11
0.20400000000000001
 21
-0.12
 31
0.0
  0
LINE
  8
0
 10
0.24
 20
-0.12
 30
0.0
 11
0.264
 21
-0.12
 31
0.0
  0
LINE
  8
0
 10
0.3
 20
-0.12
 30
0.0
 11
0.324
 21
-0.12
 31
0.0
  0
LINE
  8
0
 10
0.36
 20
-0.12
 30
0.0
 11
0.384
 21
-0.12
 31
0.0
  0
LINE
  8
0
 10
0.42
 20
-0.12
 30
0.0
 11
0.444
 21
-0.12
 31
0.0
  0
LINE
  8
0
 10
0.48
 20
-0.12
 30
0.0
 11
0.5640000000000001
 21
-0.12
 31
0.0
  0
LINE
  8
0
 10
0.6
 20
-0.12
 30
0.0
 11
0.624
 21
-0.12
 31
0.0
  0
LINE
  8
0
 10
0.624
 20
-0.126
 30
0.0
 11
0.6
 21
-0.126
 31
0.0
  0
LINE
  8
0
 10
0.5640000000000001
 20
-0.126
 30
0.0
 11
0.48
 21
-0.126
 31
0.0
  0
LINE
  8
0
 10
0.444
 20
-0.126
 30
0.0
 11
0.42
 21
-0.126
 31
0.0
  0
LINE
  8
0
 10
0.384
 20
-0.126
 30
0.0
 11
0.36
 21
-0.126
 31
0.0
  0
LINE
  8
0
 10
0.324
 20
-0.126
 30
0.0
 11
0.3
 21
-0.126
 31
0.0
  0
LINE
  8
0
 10
0.264
 20
-0.126
 30
0.0
 11
0.24
 21
-0.126
 31
0.0
  0
LINE
  8
0
 10
0.20400000000000001
 20
-0.126
 30
0.0
 11
0.18
 21
-0.126
 31
0.0
  0
LINE
  8
0
 10
0.14400000000000002
 20
-0.126
 30
0.0
 11
0.06
 21
-0.126
 31
0.0
  0
LINE
  8
0
 10
0.024
 20
-0.126
 30
0.0
 11
0.0
 21
-0.126
 31
0.0
  0
LINE
  8
0
 10
0.0
 20
-0.132
 30
0.0
 11
0.024
 21
-0.132
 31
0.0
  0
LINE
  8
0
 10
0.06
 20
-0.132
 30
0.0
 11
0.14400000000000002
 21
-0.132
 31
0.0
  0
LINE
  8
0
 10
0.18
 20
-0.132
 30
0.0
 11
0.20400000000000001
 21
-0.132
 31
0.0
  0
LINE
  8
0
 10
0.24
 20
-0.132
 30
0.0
 11
0.264
 21
-0.132
 31
0.0
  0
LINE
  8
0
 10
0.3
 20
-0.132
 30
0.0
 11
0.324
 21
-0.132
 31
0.0
  0
LINE
  8
0
 10
0.36
 20
-0.132
 30
0.0
 11
0.384
 21
-0.132
 31
0.0
  0
LINE
  8
0
 10
0.42
 20
-0.132
 30
0.0
 11
0.444
 21
-0.132
 31
0.0
  0
LINE
  8
0
 10
0.48
 20
-0.132
 30
0.0
 11
0.5640000000000001
 21
-0.132
 31
0.0
  0
LINE
  8
0
 10
0.6
 20
-0.132
 30
0.0
 11
0.624
 21
-0.132
 31
0.0
  0
LINE
  8
0
 10
0.624
 20
-0.138
 30
0.0
 11
0.6
 21
-0.138
 31
0.0
  0
LINE
  8
0
 10
0.5640000000000001
 20
-0.138
 30
0.0
 11
0.48
 21
-0.138
 31
0.0
  0
LINE
  8
0
 10
0.444
 20
-0.138
 30
0.0
 11
0.42
 21
-0.138
 31
0.0
  0
LINE
  8
0
 10
0.384
 20
-0.138
 30
0.0
 11
0.36
 21
-0.138
 31
0.0
  0
LINE
  8
0
 10
0.324
 20
-0.138
 30
0.0
 11
0.3
 21
-0.138
 31
0.0
  0
LINE
  8
0
 10
0.264
 20
-0.138
 30
0.0
 11
0.24
 21
-0.138
 31
0.0
  0
LINE
  8
0
 10
0.20400000000000001
 20
-0.138
 30
0.0
 11
0.18
 21
-0.138
 31
0.0
  0
LINE
  8
0
 10
0.14400000000000002
 20
-0.138
 30
0.0
 11
0.06
 21
-0.138
 31
0.0
  0
LINE
  8
0
 10
0.024
 20
-0.138
 30
0.0
 11
0.0
 21
-0.138
 31
0.0
  0
LINE
  8
0
 10
0.0
 20
-0.14400000000000002
 30
0.0
 11
0.024
 21
-0.14400000000000002
 31
0.0
  0
LINE
  8
0
 10
0.06
 20
-0.14400000000000002
 30
0.0
 11
0.14400000000000002
 21
-0.14400000000000002
 31
0.0
  0
LINE
  8
0
 10
0.18
 20
-0.14400000000000002
 30
0.0
 11
0.20400000000000001
 21
-0.14400000000000002
 31
0.0
  0
LINE
  8
0
 10
0.24
 20
-0.14400000000000002
 30
0.0
 11
0.264
 21
-0.14400000000000002
 31
0.0
  0
LINE
  8
0
 10
0.3
 20
-0.14400000000000002
 30
0.0
 11
0.324
 21
-0.14400000000000002
 31
0.0
  0
LINE
  8
0
 10
0.36
 20
-0.14400000000000002
 30
0.0
 11
0.384
 21
-0.14400000000000002
 31
0.0
  0
LINE
  8
0
 10
0.42
 20
-0.14400000000000002
 30
0.0
 11
0.444
 21
-0.14400000000000002
 31
0.0
  0
LINE
  8
0
 10
0.48
 20
-0.14400000000000002
 30
0.0
 11
0.5640000000000001
 21
-0.14400000000000002
 31
0.0
  0
LINE
  8
0
 10
0.6
 20
-0.14400000000000002
 30
0.0
 11
0.624
 21
-0.14400000000000002
 31
0.0
  0
LINE
  8
0
 10
0.624
 20
-0.15
 30
0.0
 11
0.6
 21
-0.15
 31
0.0
  0
LINE
  8
0
 10
0.444
 20
-0.15
 30
0.0
 11
0.42
 21
-0.15
 31
0.0
  0
LINE
  8
0
 10
0.294
 20
-0.15
 30
0.0
 11
0.24
 21
-0.15
 31
0.0
  0
LINE
  8
0
 10
0.20400000000000001
 20
-0.15
 30
0.0
 11
0.18
 21
-0.15
 31
0.0
  0
LINE
  8
0
 10
0.024
 20
-0.15
 30
0.0
 11
0.0
 21
-0.15
 31
0.0
  0
LINE
  8
0
 10
0.0
 20
-0.156
 30
0.0
 11
0.024
 21
-0.156
 31
0.0
  0
LINE
  8
0
 10
0.18
 20
-0.156
 30
0.0
 11
0.20400000000000001
 21
-0.156
 31
0.0
  0
LINE
  8
0
 10
0.24
 20
-0.156
 30
0.0
 11
0.294
 21
-0.156
 31
0.0
  0
LINE
  8
0
 10
0.42
 20
-0.156
 30
0.0
 11
0.444
 21
-0.156
 31
0.0
  0
LINE
  8
0
 10
0.6
 20
-0.156
 30
0.0
 11
0.624
 21
-0.156
 31
0.0
  0
LINE
  8
0
 10
0.624
 20
-0.162
 30
0.0
 11
0.6
 21
-0.162
 31
0.0
  0
LINE
  8
0
 10
0.444
 20
-0.162
 30
0.0
 11
0.42
 21
-0.162
 31
0.0
  0
LINE
  8
0
 10
0.294
 20
-0.162
 30
0.0
 11
0.24
 21
-0.162
 31
0.0
  0
LINE
  8
0
 10
0.20400000000000001
 20
-0.162
 30
0.0
 11
0.18
 21
-0.162
 31
0.0
  0
LINE
  8
0
 10
0.024
 20
-0.162
 30
0.0
 11
0.0
 21
-0.162
 31
0.0
  0
LINE
  8
0
 10
0.0
 20
-0.168
 30
0.0
 11
0.024
 21
-0.168
 31
0.0
  0
LINE
  8
0
 10
0.18
 20
-0.168
 30
0.0
 11
0.20400000000000001
 21
-0.168
 31
0.0
  0
LINE
  8
0
 10
0.24
 20
-0.168
 30
0.0
 11
0.294
 21
-0.168
 31
0.0
  0
LINE
  8
0
 10
0.42
 20
-0.168
 30
0.0
 11
0.444
 21
-0.168
 31
0.0
  0
LINE
  8
0
 10
0.6
 20
-0.168
 30
0.0
 11
0.624
 21
-0.168
 31
0.0
  0
LINE
  8
0
 10
0.624
 20
-0.17400000000000002
 30
0.0
 11
0.6
 21
-0.17400000000000002
 31
0.0
  0
LINE
  8
0
 10
0.444
 20
-0.17400000000000002
 30
0.0
 11
0.42
 21
-0.17400000000000002
 31
0.0
  0
LINE
  8
0
 10
0.294
 20
-0.17400000000000002
 30
0.0
 11
0.24
 21
-0.17400000000000002
 31
0.0
  0
LINE
  8
0
 10
0.20400000000000001
 20
-0.17400000000000002
 30
0.0
 11
0.18
 21
-0.17400000000000002
 31
0.0
  0
LINE
  8
0
 10
0.024
 20
-0.17400000000000002
 30
0.0
 11
0.0
 21
-0.17400000000000002
 31
0.0
  0
LINE
  8
0
 10
0.0
 20
-0.18
 30
0.0
 11
0.20400000000000001
 21
-0.18
 31
0.0
  0
LINE
  8
0
 10
0.24
 20
-0.18
 30
0.0
 11
0.264
 21
-0.18
 31
0.0
  0
LINE
  8
0
 10
0.3
 20
-0.18
 30
0.0
 11
0.324
 21
-0.18
 31
0.0
  0
LINE
  8
0
 10
0.36
 20
-0.18
 30
0.0
 11
0.384
 21
-0.18
 31
0.0
  0
LINE
  8
0
 10
0.42
 20
-0.18
 30
0.0
 11
0.624
 21
-0.18
 31
0.0
  0
LINE
  8
0
 10
0.624
 20
-0.186
 30
0.0
 11
0.42
 21
-0.186
 31
0.0
  0
LINE
  8
0
 10
0.384
 20
-0.186
 30
0.0
 11
0.36
 21
-0.186
 31
0.0
  0
LINE
  8
0
 10
0.324
 20
-0.186
 30
0.0
 11
0.3
 21
-0.186
 31
0.0
  0
LINE
  8
0
 10
0.264
 20
-0.186
 30
0.0
 11
0.24
 21
-0.186
 31
0.0
  0
LINE
  8
0
 10
0.20400000000000001
 20
-0.186
 30
0.0
 11
0.0
 21
-0.186
 31
0.0
  0
LINE
  8
0
 10
0.0
 20
-0.192
 30
0.0
 11
0.20400000000000001
 21
-0.192
 31
0.0
  0
LINE
  8
0
 10
0.24
 20
-0.192
 30
0.0
 11
0.264
 21
-0.192
 31
0.0
  0
LINE
  8
0
 10
0.3
 20
-0.192
 30
0.0
 11
0.324
 21
-0.192
 31
0.0
  0
LINE
  8
0
 10
0.36
 20
-0.192
 30
0.0
 11
0.384
 21
-0.192
 31
0.0
  0
LINE
  8
0
 10
0.42
 20
-0.192
 30
0.0
 11
0.624
 21
-0.192
 31
0.0
  0
LINE
  8
0
 10
0.624
 20
-0.198
 30
0.0
 11
0.42
 21
-0.198
 31
0.0
  0
LINE
  8
0
 10
0.384
 20
-0.198
 30
0.0
 11
0.36
 21
-0.198
 31
0.0
  0
LINE
  8
0
 10
0.324
 20
-0.198
 30
0.0
 11
0.3
 21
-0.198
 31
0.0
  0
LINE
  8
0
 10
0.264
 20
-0.198
 30
0.0
 11
0.24
 21
-0.198
 31
0.0
  0
LINE
  8
0
 10
0.20400000000000001
 20
-0.198
 30
0.0
 11
0.0
 21
-0.198
 31
0.0
  0
LINE
  8
0
 10
0.0
 20
-0.20400000000000001
 30
0.0
 11
0.20400000000000001
 21
-0.20400000000000001
 31
0.0
  0
LINE
  8
0
 10
0.24
 20
-0.20400000000000001
 30
0.0
 11
0.264
 21
-0.20400000000000001
 31
0.0
  0
LINE
  8
0
 10
0.3
 20
-0.20400000000000001
 30
0.0
 11
0.324
 21
-0.20400000000000001
 31
0.0
  0
LINE
  8
0
 10
0.36
 20
-0.20400000000000001
 30
0.0
 11
0.384
 21
-0.20400000000000001
 31
0.0
  0
LINE
  8
0
 10
0.42
 20
-0.20400000000000001
 30
0.0
 11
0.624
 21
-0.20400000000000001
 31
0.0
  0
LINE
  8
0
 10
0.324
 20
-0.21
 30
0.0
 11
0.3
 21
-0.21
 31
0.0
  0
LINE
  8
0
 10
0.3
 20
-0.216
 30
0.0
 11
0.324
 21
-0.216
 31
0.0
  0
LINE
  8
0
 10
0.324
 20
-0.222
 30
0.0
 11
0.3
 21
-0.222
 31
0.0
  0
LINE
  8
0
 10
0.3
 20
-0.228
 30
0.0
 11
0.324
 21
-0.228
 31
0.0
  0
LINE
  8
0
 10
0.324
 20
-0.234
 30
0.0
 11
0.3
 21
-0.234
 31
0.0
  0
LINE
  8
0
 10
0.03
 20
-0.24
 30
0.0
 11
0.054
 21
-0.24
 31
0.0
  0
LINE
  8
0
 10
0.12
 20
-0.24
 30
0.0
 11
0.14400000000000002
 21
-0.24
 31
0.0
  0
LINE
  8
0
 10
0.18
 20
-0.24
 30
0.0
 11
0.20400000000000001
 21
-0.24
 31
0.0
  0
LINE
  8
0
 10
0.24
 20
-0.24
 30
0.0
 11
0.324
 21
-0.24
 31
0.0
  0
LINE
  8
0
 10
0.36
 20
-0.24
 30
0.0
 11
0.41400000000000003
 21
-0.24
 31
0.0
  0
LINE
  8
0
 10
0.45
 20
-0.24
 30
0.0
 11
0.504
 21
-0.24
 31
0.0
  0
LINE
  8
0
 10
0.54
 20
-0.24
 30
0.0
 11
0.5640000000000001
 21
-0.24
 31
0.0
  0
LINE
  8
0
 10
0.5640000000000001
 20
-0.246
 30
0.0
 11
0.54
 21
-0.246
 31
0.0
  0
LINE
  8
0
 10
0.504
 20
-0.246
 30
0.0
 11
0.45
 21
-0.246
 31
0.0
  0
LINE
  8
0
 10
0.41400000000000003
 20
-0.246
 30
0.0
 11
0.36
 21
-0.246
 31
0.0
  0
LINE
  8
0
 10
0.324
 20
-0.246
 30
0.0
 11
0.24
 21
-0.246
 31
0.0
  0
LINE
  8
0
 10
0.20400000000000001
 20
-0.246
 30
0.0
 11
0.18
 21
-0.246
 31
0.0
  0
LINE
  8
0
 10
0.14400000000000002
 20
-0.246
 30
0.0
 11
0.12
 21
-0.246
 31
0.0
  0
LINE
  8
0
 10
0.054
 20
-0.246
 30
0.0
 11
0.03
 21
-0.246
 31
0.0
  0
LINE
  8
0
 10
0.03
 20
-0.252
 30
0.0
 11
0.054
 21
-0.252
 31
0.0
  0
LINE
  8
0
 10
0.12
 20
-0.252
 30
0.0
 11
0.14400000000000002
 21
-0.252
 31
0.0
  0
LINE
  8
0
 10
0.18
 20
-0.252
 30
0.0
 11
0.20400000000000001
 21
-0.252
 31
0.0
  0
LINE
  8
0
 10
0.24
 20
-0.252
 30
0.0
 11
0.324
 21
-0.252
 31
0.0
  0
LINE
  8
0
 10
0.36
 20
-0.252
 30
0.0
 11
0.41400000000000003
 21
-0.252
 31
0.0
  0
LINE
  8
0
 10
0.45
 20
-0.252
 30
0.0
 11
0.504
 21
-0.252
 31
0.0
  0
LINE
  8
0
 10
0.54
 20
-0.252
 30
0.0
 11
0.5640000000000001
 21
-0.252
 31
0.0
  0
LINE
  8
0
 10
0.5640000000000001
 20
-0.258
 30
0.0
 11
0.54
 21
-0.258
 31
0.0
  0
LINE
  8
0
 10
0.504
 20
-0.258
 30
0.0
 11
0.45
 21
-0.258
 31
0.0
  0
LINE
  8
0
 10
0.41400000000000003
 20
-0.258
 30
0.0
 11
0.36
 21
-0.258
 31
0.0
  0
LINE
  8
0
 10
0.324
 20
-0.258
 30
0.0
 11
0.24
 21
-0.258
 31
0.0
  0
LINE
  8
0
 10
0.20400000000000001
 20
-0.258
 30
0.0
 11
0.18
 21
-0.258
 31
0.0
  0
LINE
  8
0
 10
0.14400000000000002
 20
-0.258
 30
0.0
 11
0.12
 21
-0.258
 31
0.0
  0
LINE
  8
0
 10
0.054
 20
-0.258
 30
0.0
 11
0.03
 21
-0.258
 31
0.0
  0
LINE
  8
0
 10
0.03
 20
-0.264
 30
0.0
 11
0.054
 21
-0.264
 31
0.0
  0
LINE
  8
0
 10
0.12
 20
-0.264
 30
0.0
 11
0.14400000000000002
 21
-0.264
 31
0.0
  0
LINE
  8
0
 10
0.18
 20
-0.264
 30
0.0
 11
0.20400000000000001
 21
-0.264
 31
0.0
  0
LINE
  8
0
 10
0.24
 20
-0.264
 30
0.0
 11
0.324
 21
-0.264
 31
0.0
  0
LINE
  8
0
 10
0.36
 20
-0.264
 30
0.0
 11
0.41400000000000003
 21
-0.264
 31
0.0
  0
LINE
  8
0
 10
0.45
 20
-0.264
 30
0.0
 11
0.504
 21
-0.264
 31
0.0
  0
LINE
  8
0
 10
0.54
 20
-0.264
 30
0.0
 11
0.5640000000000001
 21
-0.264
 31
0.0
  0
LINE
  8
0
 10
0.594
 20
-0.27
 30
0.0
 11
0.48
 21
-0.27
 31
0.0
  0
LINE
  8
0
 10
0.444
 20
-0.27
 30
0.0
 11
0.42
 21
-0.27
 31
0.0
  0
LINE
  8
0
 10
0.294
 20
-0.27
 30
0.0
 11
0.24
 21
-0.27
 31
0.0
  0
LINE
  8
0
 10
0.17400000000000002
 20
-0.27
 30
0.0
 11
0.15
 21
-0.27
 31
0.0
  0
LINE
  8
0
 10
0.114
 20
-0.27
 30
0.0
 11
0.03
 21
-0.27
 31
0.0
  0
LINE
  8
0
 10
0.03
 20
-0.276
 30
0.0
 11
0.114
 21
-0.276
 31
0.0
  0
LINE
  8
0
 10
0.15
 20
-0.276
 30
0.0
 11
0.17400000000000002
 21
-0.276
 31
0.0
  0
LINE
  8
0
 10
0.24
 20
-0.276
 30
0.0
 11
0.294
 21
-0.276
 31
0.0
  0
LINE
  8
0
 10
0.42
 20
-0.276
 30
0.0
 11
0.444
 21
-0.276
 31
0.0
  0
LINE
  8
0
 10
0.48
 20
-0.276
 30
0.0
 11
0.594
 21
-0.276
 31
0.0
  0
LINE
  8
0
 10
0.594
 20
-0.28200000000000003
 30
0.0
 11
0.48
 21
-0.28200000000000003
 31
0.0
  0
LINE
  8
0
 10
0.444
 20
-0.28200000000000003
 30
0.0
 11
0.42
 21
-0.28200000000000003
 31
0.0
  0
LINE
  8
0
 10
0.294
 20
-0.28200000000000003
 30
0.0
 11
0.24
 21
-0.28200000000000003
 31
0.0
  0
LINE
  8
0
 10
0.17400000000000002
 20
-0.28200000000000003
 30
0.0
 11
0.15
 21
-0.28200000000000003
 31
0.0
  0
LINE
  8
0
 10
0.114
 20
-0.28200000000000003
 30
0.0
 11
0.03
 21
-0.28200000000000003
 31
0.0
  0
LINE
  8
0
 10
0.03
 20
-0.28800000000000003
 30
0.0
 11
0.114
 21
-0.28800000000000003
 31
0.0
  0
LINE
  8
0
 10
0.15
 20
-0.28800000000000003
 30
0.0
 11
0.17400000000000002
 21
-0.28800000000000003
 31
0.0
  0
LINE
  8
0
 10
0.24
 20
-0.28800000000000003
 30
0.0
 11
0.294
 21
-0.28800000000000003
 31
0.0
  0
LINE
  8
0
 10
0.42
 20
-0.28800000000000003
 30
0.0
 11
0.444
 21
-0.28800000000000003
 31
0.0
  0
LINE
  8
0
 10
0.48
 20
-0.28800000000000003
 30
0.0
 11
0.594
 21
-0.28800000000000003
 31
0.0
  0
LINE
  8
0
 10
0.594
 20
-0.294
 30
0.0
 11
0.48
 21
-0.294
 31
0.0
  0
LINE
  8
0
 10
0.444
 20
-0.294
 30
0.0
 11
0.42
 21
-0.294
 31
0.0
  0
LINE
  8
0
 10
0.294
 20
-0.294
 30
0.0
 11
0.24
 21
-0.294
 31
0.0
  0
LINE
  8
0
 10
0.17400000000000002
 20
-0.294
 30
0.0
 11
0.15
 21
-0.294
 31
0.0
  0
LINE
  8
0
 10
0.114
 20
-0.294
 30
0.0
 11
0.03
 21
-0.294
 31
0.0
  0
LINE
  8
0
 10
0.0
 20
-0.3
 30
0.0
 11
0.024
 21
-0.3
 31
0.0
  0
LINE
  8
0
 10
0.06
 20
-0.3
 30
0.0
 11
0.084
 21
-0.3
 31
0.0
  0
LINE
  8
0
 10
0.18
 20
-0.3
 30
0.0
 11
0.294
 21
-0.3
 31
0.0
  0
LINE
  8
0
 10
0.39
 20
-0.3
 30
0.0
 11
0.41400000000000003
 21
-0.3
 31
0.0
  0
LINE
  8
0
 10
0.48
 20
-0.3
 30
0.0
 11
0.534
 21
-0.3
 31
0.0
  0
LINE
  8
0
 10
0.5700000000000001
 20
-0.3
 30
0.0
 11
0.594
 21
-0.3
 31
0.0
  0
LINE
  8
0
 10
0.594
 20
-0.306
 30
0.0
 11
0.5700000000000001
 21
-0.306
 31
0.0
  0
LINE
  8
0
 10
0.534
 20
-0.306
 30
0.0
 11
0.48
 21
-0.306
 31
0.0
  0
LINE
  8
0
 10
0.41400000000000003
 20
-0.306
 30
0.0
 11
0.39
 21
-0.306
 31
0.0
  0
LINE
  8
0
 10
0.294
 20
-0.306
 30
0.0
 11
0.18
 21
-0.306
 31
0.0
  0
LINE
  8
0
 10
0.084
 20
-0.306
 30
0.0
 11
0.06
 21
-0.306
 31
0.0
  0
LINE
  8
0
 10
0.024
 20
-0.306
 30
0.0
 11
0.0
 21
-0.306
 31
0.0
  0
LINE
  8
0
 10
0.0
 20
-0.312
 30
0.0
 11
0.024
 21
-0.312
 31
0.0
  0
LINE
  8
0
 10
0.06
 20
-0.312
 30
0.0
 11
0.084
 21
-0.312
 31
0.0
  0
LINE
  8
0
 10
0.18
 20
-0.312
 30
0.0
 11
0.294
 21
-0.312
 31
0.0
  0
LINE
  8
0
 10
0.39
 20
-0.312
 30
0.0
 11
0.41400000000000003
 21
-0.312
 31
0.0
  0
LINE
  8
0
 10
0.48
 20
-0.312
 30
0.0
 11
0.534
 21
-0.312
 31
0.0
  0
LINE
  8
0
 10
0.5700000000000001
 20
-0.312
 30
0.0
 11
0.594
 21
-0.312
 31
0.0
  0
LINE
  8
0
 10
0.594
 20
-0.318
 30
0.0
 11
0.5700000000000001
 21
-0.318
 31
0.0
  0
LINE
  8
0
 10
0.534
 20
-0.318
 30
0.0
 11
0.48
 21
-0.318
 31
0.0
  0
LINE
  8
0
 10
0.41400000000000003
 20
-0.318
 30
0.0
 11
0.39
 21
-0.318
 31
0.0
  0
LINE
  8
0
 10
0.294
 20
-0.318
 30
0.0
 11
0.18
 21
-0.318
 31
0.0
  0
LINE
  8
0
 10
0.084
 20
-0.318
 30
0.0
 11
0.06
 21
-0.318
 31
0.0
  0
LINE
  8
0
 10
0.024
 20
-0.318
 30
0.0
 11
0.0
 21
-0.318
 31
0.0
  0
LINE
  8
0
 10
0.0
 20
-0.324
 30
0.0
 11
0.024
 21
-0.324
 31
0.0
  0
LINE
  8
0
 10
0.06
 20
-0.324
 30
0.0
 11
0.084
 21
-0.324
 31
0.0
  0
LINE
  8
0
 10
0.18
 20
-0.324
 30
0.0
 11
0.294
 21
-0.324
 31
0.0
  0
LINE
  8
0
 10
0.39
 20
-0.324
 30
0.0
 11
0.41400000000000003
 21
-0.324
 31
0.0
  0
LINE
  8
0
 10
0.48
 20
-0.324
 30
0.0
 11
0.534
 21
-0.324
 31
0.0
  0
LINE
  8
0
 10
0.5700000000000001
 20
-0.324
 30
0.0
 11
0.594
 21
-0.324
 31
0.0
  0
LINE
  8
0
 10
0.594
 20
-0.33
 30
0.0
 11
0.5700000000000001
 21
-0.33
 31
0.0
  0
LINE
  8
0
 10
0.47400000000000003
 20
-0.33
 30
0.0
 11
0.45
 21
-0.33
 31
0.0
  0
LINE
  8
0
 10
0.324
 20
-0.33
 30
0.0
 11
0.3
 21
-0.33
 31
0.0
  0
LINE
  8
0
 10
0.114
 20
-0.33
 30
0.0
 11
0.03
 21
-0.33
 31
0.0
  0
LINE
  8
0
 10
0.03
 20
-0.336
 30
0.0
 11
0.114
 21
-0.336
 31
0.0
  0
LINE
  8
0
 10
0.3
 20
-0.336
 30
0.0
 11
0.324
 21
-0.336
 31
0.0
  0
LINE
  8
0
 10
0.45
 20
-0.336
 30
0.0
 11
0.47400000000000003
 21
-0.336
 31
0.0
  0
LINE
  8
0
 10
0.5700000000000001
 20
-0.336
 30
0.0
 11
0.594
 21
-0.336
 31
0.0
  0
LINE
  8
0
 10
0.594
 20
-0.342
 30
0.0
 11
0.5700000000000001
 21
-0.342
 31
0.0
  0
LINE
  8
0
 10
0.47400000000000003
 20
-0.342
 30
0.0
 11
0.45
 21
-0.342
 31
0.0
  0
LINE
  8
0
 10
0.324
 20
-0.342
 30
0.0
 11
0.3
 21
-0.342
 31
0.0
  0
LINE
  8
0
 10
0.114
 20
-0.342
 30
0.0
 11
0.03
 21
-0.342
 31
0.0
  0
LINE
  8
0
 10
0.03
 20
-0.34800000000000003
 30
0.0
 11
0.114
 21
-0.34800000000000003
 31
0.0
  0
LINE
  8
0
 10
0.3
 20
-0.34800000000000003
 30
0.0
 11
0.324
 21
-0.34800000000000003
 31
0.0
  0
LINE
  8
0
 10
0.45
 20
-0.34800000000000003
 30
0.0
 11
0.47400000000000003
 21
-0.34800000000000003
 31
0.0
  0
LINE
  8
0
 10
0.5700000000000001
 20
-0.34800000000000003
 30
0.0
 11
0.594
 21
-0.34800000000000003
 31
0.0
  0
LINE
  8
0
 10
0.594
 20
-0.354
 30
0.0
 11
0.5700000000000001
 21
-0.354
 31
0.0
  0
LINE
  8
0
 10
0.47400000000000003
 20
-0.354
 30
0.0
 11
0.45
 21
-0.354
 31
0.0
  0
LINE
  8
0
 10
0.324
 20
-0.354
 30
0.0
 11
0.3
 21
-0.354
 31
0.0
  0
LINE
  8
0
 10
0.114
 20
-0.354
 30
0.0
 11
0.03
 21
-0.354
 31
0.0
  0
LINE
  8
0
 10
0.06
 20
-0.36
 30
0.0
 11
0.14400000000000002
 21
-0.36
 31
0.0
  0
LINE
  8
0
 10
0.18
 20
-0.36
 30
0.0
 11
0.234
 21
-0.36
 31
0.0
  0
LINE
  8
0
 10
0.3
 20
-0.36
 30
0.0
 11
0.47400000000000003
 21
-0.36
 31
0.0
  0
LINE
  8
0
 10
0.6
 20
-0.36
 30
0.0
 11
0.624
 21
-0.36
 31
0.0
  0
LINE
  8
0
 10
0.624
 20
-0.366
 30
0.0
 11
0.6
 21
-0.366
 31
0.0
  0
LINE
  8
0
 10
0.47400000000000003
 20
-0.366
 30
0.0
 11
0.3
 21
-0.366
 31
0.0
  0
LINE
  8
0
 10
0.234
 20
-0.366
 30
0.0
 11
0.18
 21
-0.366
 31
0.0
  0
LINE
  8
0
 10
0.14400000000000002
 20
-0.366
 30
0.0
 11
0.06
 21
-0.366
 31
0.0
  0
LINE
  8
0
 10
0.06
 20
-0.372
 30
0.0
 11
0.14400000000000002
 21
-0.372
 31
0.0
  0
LINE
  8
0
 10
0.18
 20
-0.372
 30
0.0
 11
0.234
 21
-0.372
 31
0.0
  0
LINE
  8
0
 10
0.3
 20
-0.372
 30
0.0
 11
0.47400000000000003
 21
-0.372
 31
0.0
  0
LINE
  8
0
 10
0.6
 20
-0.372
 30
0.0
 11
0.624
 21
-0.372
 31
0.0
  0
LINE
  8
0
 10
0.624
 20
-0.378
 30
0.0
 11
0.6
 21
-0.378
 31
0.0
  0
LINE
  8
0
 10
0.47400000000000003
 20
-0.378
 30
0.0
 11
0.3
 21
-0.378
 31
0.0
  0
LINE
  8
0
 10
0.234
 20
-0.378
 30
0.0
 11
0.18
 21
-0.378
 31
0.0
  0
LINE
  8
0
 10
0.14400000000000002
 20
-0.378
 30
0.0
 11
0.06
 21
-0.378
 31
0.0
  0
LINE
  8
0
 10
0.06
 20
-0.384
 30
0.0
 11
0.14400000000000002
 21
-0.384
 31
0.0
  0
LINE
  8
0
 10
0.18
 20
-0.384
 30
0.0
 11
0.234
 21
-0.384
 31
0.0
  0
LINE
  8
0
 10
0.3
 20
-0.384
 30
0.0
 11
0.47400000000000003
 21
-0.384
 31
0.0
  0
LINE
  8
0
 10
0.6
 20
-0.384
 30
0.0
 11
0.624
 21
-0.384
 31
0.0
  0
LINE
  8
0
 10
0.594
 20
-0.39
 30
0.0
 11
0.45
 21
-0.39
 31
0.0
  0
LINE
  8
0
 10
0.264
 20
-0.39
 30
0.0
 11
0.24
 21
-0.39
 31
0.0
  0
LINE
  8
0
 10
0.24
 20
-0.396
 30
0.0
 11
0.264
 21
-0.396
 31
0.0
  0
LINE
  8
0
 10
0.45
 20
-0.396
 30
0.0
 11
0.594
 21
-0.396
 31
0.0
  0
LINE
  8
0
 10
0.594
 20
-0.402
 30
0.0
 11
0.45
 21
-0.402
 31
0.0
  0
LINE
  8
0
 10
0.264
 20
-0.402
 30
0.0
 11
0.24
 21
-0.402
 31
0.0
  0
LINE
  8
0
 10
0.24
 20
-0.40800000000000003
 30
0.0
 11
0.264
 21
-0.40800000000000003
 31
0.0
  0
LINE
  8
0
 10
0.45
 20
-0.40800000000000003
 30
0.0
 11
0.594
 21
-0.40800000000000003
 31
0.0
  0
LINE
  8
0
 10
0.594
 20
-0.41400000000000003
 30
0.0
 11
0.45
 21
-0.41400000000000003
 31
0.0
  0
LINE
  8
0
 10
0.264
 20
-0.41400000000000003
 30
0.0
 11
0.24
 21
-0.41400000000000003
 31
0.0
  0
LINE
  8
0
 10
0.0
 20
-0.42
 30
0.0
 11
0.20400000000000001
 21
-0.42
 31
0.0
  0
LINE
  8
0
 10
0.27
 20
-0.42
 30
0.0
 11
0.294
 21
-0.42
 31
0.0
  0
LINE
  8
0
 10
0.36
 20
-0.42
 30
0.0
 11
0.384
 21
-0.42
 31
0.0
  0
LINE
  8
0
 10
0.42
 20
-0.42
 30
0.0
 11
0.444
 21
-0.42
 31
0.0
  0
LINE
  8
0
 10
0.48
 20
-0.42
 30
0.0
 11
0.504
 21
-0.42
 31
0.0
  0
LINE
  8
0
 10
0.54
 20
-0.42
 30
0.0
 11
0.594
 21
-0.42
 31
0.0
  0
LINE
  8
0
 10
0.594
 20
-0.426
 30
0.0
 11
0.54
 21
-0.426
 31
0.0
  0
LINE
  8
0
 10
0.504
 20
-0.426
 30
0.0
 11
0.48
 21
-0.426
 31
0.0
  0
LINE
  8
0
 10
0.444
 20
-0.426
 30
0.0
 11
0.42
 21
-0.426
 31
0.0
  0
LINE
  8
0
 10
0.384
 20
-0.426
 30
0.0
 11
0.36
 21
-0.426
 31
0.0
  0
LINE
  8
0
 10
0.294
 20
-0.426
 30
0.0
 11
0.27
 21
-0.426
 31
0.0
  0
LINE
  8
0
 10
0.20400000000000001
 20
-0.426
 30
0.0
 11
0.0
 21
-0.426
 31
0.0
  0
LINE
  8
0
 10
0.0
 20
-0.432
 30
0.0
 11
0.20400000000000001
 21
-0.432
 31
0.0
  0
LINE
  8
0
 10
0.27
 20
-0.432
 30
0.0
 11
0.294
 21
-0.432
 31
0.0
  0
LINE
  8
0
 10
0.36
 20
-0.432
 30
0.0
 11
0.384
 21
-0.432
 31
0.0
  0
LINE
  8
0
 10
0.42
 20
-0.432
 30
0.0
 11
0.444
 21
-0.432
 31
0.0
  0
LINE
  8
0
 10
0.48
 20
-0.432
 30
0.0
 11
0.504
 21
-0.432
 31
0.0
  0
LINE
  8
0
 10
0.54
 20
-0.432
 30
0.0
 11
0.594
 21
-0.432
 31
0.0
  0
LINE
  8
0
 10
0.594
 20
-0.438
 30
0.0
 11
0.54
 21
-0.438
 31
0.0
  0
LINE
  8
0
 10
0.504
 20
-0.438
 30
0.0
 11
0.48
 21
-0.438
 31
0.0
  0
LINE
  8
0
 10
0.444
 20
-0.438
 30
0.0
 11
0.42
 21
-0.438
 31
0.0
  0
LINE
  8
0
 10
0.384
 20
-0.438
 30
0.0
 11
0.36
 21
-0.438
 31
0.0
  0
LINE
  8
0
 10
0.294
 20
-0.438
 30
0.0
 11
0.27
 21
-0.438
 31
0.0
  0
LINE
  8
0
 10
0.20400000000000001
 20
-0.438
 30
0.0
 11
0.0
 21
-0.438
 31
0.0
  0
LINE
  8
0
 10
0.0
 20
-0.444
 30
0.0
 11
0.20400000000000001
 21
-0.444
 31
0.0
  0
LINE
  8
0
 10
0.27
 20
-0.444
 30
0.0
 11
0.294
 21
-0.444
 31
0.0
  0
LINE
  8
0
 10
0.36
 20
-0.444
 30
0.0
 11
0.384
 21
-0.444
 31
0.0
  0
LINE
  8
0
 10
0.42
 20
-0.444
 30
0.0
 11
0.444
 21
-0.444
 31
0.0
  0
LINE
  8
0
 10
0.48
 20
-0.444
 30
0.0
 11
0.504
 21
-0.444
 31
0.0
  0
LINE
  8
0
 10
0.54
 20
-0.444
 30
0.0
 11
0.594
 21
-0.444
 31
0.0
  0
LINE
  8
0
 10
0.504
 20
-0.45
 30
0.0
 11
0.48
 21
-0.45
 31
0.0
  0
LINE
  8
0
 10
0.444
 20
-0.45
 30
0.0
 11
0.27
 21
-0.45
 31
0.0
  0
LINE
  8
0
 10
0.20400000000000001
 20
-0.45
 30
0.0
 11
0.18
 21
-0.45
 31
0.0
  0
LINE
  8
0
 10
0.024
 20
-0.45
 30
0.0
 11
0.0
 21
-0.45
 31
0.0
  0
LINE
  8
0
 10
0.0
 20
-0.456
 30
0.0
 11
0.024
 21
-0.456
 31
0.0
  0
LINE
  8
0
 10
0.18
 20
-0.456
 30
0.0
 11
0.20400000000000001
 21
-0.456
 31
0.0
  0
LINE
  8
0
 10
0.27
 20
-0.456
 30
0.0
 11
0.444
 21
-0.456
 31
0.0
  0
LINE
  8
0
 10
0.48
 20
-0.456
 30
0.0
 11
0.504
 21
-0.456
 31
0.0
  0
LINE
  8
0
 10
0.504
 20
-0.462
 30
0.0
 11
0.48
 21
-0.462
 31
0.0
  0
LINE
  8
0
 10
0.444
 20
-0.462
 30
0.0
 11
0.27
 21
-0.462
 31
0.0
  0
LINE
  8
0
 10
0.20400000000000001
 20
-0.462
 30
0.0
 11
0.18
 21
-0.462
 31
0.0
  0
LINE
  8
0
 10
0.024
 20
-0.462
 30
0.0
 11
0.0
 21
-0.462
 31
0.0
  0
LINE
  8
0
 10
0.0
 20
-0.468
 30
0.0
 11
0.024
 21
-0.468
 31
0.0
  0
LINE
  8
0
 10
0.18
 20
-0.468
 30
0.0
 11
0.20400000000000001
 21
-0.468
 31
0.0
  0
LINE
  8
0
 10
0.27
 20
-0.468
 30
0.0
 11
0.444
 21
-0.468
 31
0.0
  0
LINE
  8
0
 10
0.48
 20
-0.468
 30
0.0
 11
0.504
 21
-0.468
 31
0.0
  0
LINE
  8
0
 10
0.504
 20
-0.47400000000000003
 30
0.0
 11
0.48
 21
-0.47400000000000003
 31
0.0
  0
LINE
  8
0
 10
0.444
 20
-0.47400000000000003
 30
0.0
 11
0.27
 21
-0.47400000000000003
 31
0.0
  0
LINE
  8
0
 10
0.20400000000000001
 20
-0.47400000000000003
 30
0.0
 11
0.18
 21
-0.47400000000000003
 31
0.0
  0
LINE
  8
0
 10
0.024
 20
-0.47400000000000003
 30
0.0
 11
0.0
 21
-0.47400000000000003
 31
0.0
  0
LINE
  8
0
 10
0.0
 20
-0.48
 30
0.0
 11
0.024
 21
-0.48
 31
0.0
  0
LINE
  8
0
 10
0.06
 20
-0.48
 30
0.0
 11
0.14400000000000002
 21
-0.48
 31
0.0
  0
LINE
  8
0
 10
0.18
 20
-0.48
 30
0.0
 11
0.20400000000000001
 21
-0.48
 31
0.0
  0
LINE
  8
0
 10
0.24
 20
-0.48
 30
0.0
 11
0.294
 21
-0.48
 31
0.0
  0
LINE
  8
0
 10
0.39
 20
-0.48
 30
0.0
 11
0.444
 21
-0.48
 31
0.0
  0
LINE
  8
0
 10
0.5700000000000001
 20
-0.48
 30
0.0
 11
0.594
 21
-0.48
 31
0.0
  0
LINE
  8
0
 10
0.594
 20
-0.486
 30
0.0
 11
0.5700000000000001
 21
-0.486
 31
0.0
  0
LINE
  8
0
 10
0.444
 20
-0.486
 30
0.0
 11
0.39
 21
-0.486
 31
0.0
  0
LINE
  8
0
 10
0.294
 20
-0.486
 30
0.0
 11
0.24
 21
-0.486
 31
0.0
  0
LINE
  8
0
 10
0.20400000000000001
 20
-0.486
 30
0.0
 11
0.18
 21
-0.486
 31
0.0
  0
LINE
  8
0
 10
0.14400000000000002
 20
-0.486
 30
0.0
 11
0.06
 21
-0.486
 31
0.0
  0
LINE
  8
0
 10
0.024
 20
-0.486
 30
0.0
 11
0.0
 21
-0.486
 31
0.0
  0
LINE
  8
0
 10
0.0
 20
-0.492
 30
0.0
 11
0.024
 21
-0.492
 31
0.0
  0
LINE
  8
0
 10
0.06
 20
-0.492
 30
0.0
 11
0.14400000000000002
 21
-0.492
 31
0.0
  0
LINE
  8
0
 10
0.18
 20
-0.492
 30
0.0
 11
0.20400000000000001
 21
-0.492
 31
0.0
  0
LINE
  8
0
 10
0.24
 20
-0.492
 30
0.0
 11
0.294
 21
-0.492
 31
0.0
  0
LINE
  8
0
 10
0.39
 20
-0.492
 30
0.0
 11
0.444
 21
-0.492
 31
0.0
  0
LINE
  8
0
 10
0.5700000000000001
 20
-0.492
 30
0.0
 11
0.594
 21
-0.492
 31
0.0
  0
LINE
  8
0
 10
0.594
 20
-0.498
 30
0.0
 11
0.5700000000000001
 21
-0.498
 31
0.0
  0
LINE
  8
0
 10
0.444
 20
-0.498
 30
0.0
 11
0.39
 21
-0.498
 31
0.0
  0
LINE
  8
0
 10
0.294
 20
-0.498
 30
0.0
 11
0.24
 21
-0.498
 31
0.0
  0
LINE
  8
0
 10
0.20400000000000001
 20
-0.498
 30
0.0
 11
0.18
 21
-0.498
 31
0.0
  0
LINE
  8
0
 10
0.14400000000000002
 20
-0.498
 30
0.0
 11
0.06
 21
-0.498
 31
0.0
  0
LINE
  8
0
 10
0.024
 20
-0.498
 30
0.0
 11
0.0
 21
-0.498
 31
0.0
  0
LINE
  8
0
 10
0.0
 20
-0.504
 30
0.0
 11
0.024
 21
-0.504
 31
0.0
  0
LINE
  8
0
 10
0.06
 20
-0.504
 30
0.0
 11
0.14400000000000002
 21
-0.504
 31
0.0
  0
LINE
  8
0
 10
0.18
 20
-0.504
 30
0.0
 11
0.20400000000000001
 21
-0.504
 31
0.0
  0
LINE
  8
0
 10
0.24
 20
-0.504
 30
0.0
 11
0.294
 21
-0.504
 31
0.0
  0
LINE
  8
0
 10
0.39
 20
-0.504
 30
0.0
 11
0.444
 21
-0.504
 31
0.0
  0
LINE
  8
0
 10
0.5700000000000001
 20
-0.504
 30
0.0
 11
0.594
 21
-0.504
 31
0.0
  0
LINE
  8
0
 10
0.624
 20
-0.51
 30
0.0
 11
0.48
 21
-0.51
 31
0.0
  0
LINE
  8
0
 10
0.444
 20
-0.51
 30
0.0
 11
0.36
 21
-0.51
 31
0.0
  0
LINE
  8
0
 10
0.324
 20
-0.51
 30
0.0
 11
0.3
 21
-0.51
 31
0.0
  0
LINE
  8
0
 10
0.20400000000000001
 20
-0.51
 30
0.0
 11
0.18
 21
-0.51
 31
0.0
  0
LINE
  8
0
 10
0.14400000000000002
 20
-0.51
 30
0.0
 11
0.06
 21
-0.51
 31
0.0
  0
LINE
  8
0
 10
0.024
 20
-0.51
 30
0.0
 11
0.0
 21
-0.51
 31
0.0
  0
LINE
  8
0
 10
0.0
 20
-0.516
 30
0.0
 11
0.024
 21
-0.516
 31
0.0
  0
LINE
  8
0
 10
0.06
 20
-0.516
 30
0.0
 11
0.14400000000000002
 21
-0.516
 31
0.0
  0
LINE
  8
0
 10
0.18
 20
-0.516
 30
0.0
 11
0.20400000000000001
 21
-0.516
 31
0.0
  0
LINE
  8
0
 10
0.3
 20
-0.516
 30
0.0
 11
0.324
 21
-0.516
 31
0.0
  0
LINE
  8
0
 10
0.36
 20
-0.516
 30
0.0
 11
0.444
 21
-0.516
 31
0.0
  0
LINE
  8
0
 10
0.48
 20
-0.516
 30
0.0
 11
0.624
 21
-0.516
 31
0.0
  0
LINE
  8
0
 10
0.624
 20
-0.522
 30
0.0
 11
0.48
 21
-0.522
 31
0.0
  0
LINE
  8
0
 10
0.444
 20
-0.522
 30
0.0
 11
0.36
 21
-0.522
 31
0.0
  0
LINE
  8
0
 10
0.324
 20
-0.522
 30
0.0
 11
0.3
 21
-0.522
 31
0.0
  0
LINE
  8
0
 10
0.20400000000000001
 20
-0.522
 30
0.0
 11
0.18
 21
-0.522
 31
0.0
  0
LINE
  8
0
 10
0.14400000000000002
 20
-0.522
 30
0.0
 11
0.06
 21
-0.522
 31
0.0
  0
LINE
  8
0
 10
0.024
 20
-0.522
 30
0.0
 11
0.0
 21
-0.522
 31
0.0
  0
LINE
  8
0
 10
0.0
 20
-0.528
 30
0.0
 11
0.024
 21
-0.528
 31
0.0
  0
LINE
  8
0
 10
0.06
 20
-0.528
 30
0.0
 11
0.14400000000000002
 21
-0.528
 31
0.0
  0
LINE
  8
0
 10
0.18
 20
-0.528
 30
0.0
 11
0.20400000000000001
 21
-0.528
 31
0.0
  0
LINE
  8
0
 10
0.3
 20
-0.528
 30
0.0
 11
0.324
 21
-0.528
 31
0.0
  0
LINE
  8
0
 10
0.36
 20
-0.528
 30
0.0
 11
0.444
 21
-0.528
 31
0.0
  0
LINE
  8
0
 10
0.48
 20
-0.528
 30
0.0
 11
0.624
 21
-0.528
 31
0.0
  0
LINE
  8
0
 10
0.624
 20
-0.534
 30
0.0
 11
0.48
 21
-0.534
 31
0.0
  0
LINE
  8
0
 10
0.444
 20
-0.534
 30
0.0
 11
0.36
 21
-0.534
 31
0.0
  0
LINE
  8
0
 10
0.324
 20
-0.534
 30
0.0
 11
0.3
 21
-0.534
 31
0.0
  0
LINE
  8
0
 10
0.20400000000000001
 20
-0.534
 30
0.0
 11
0.18
 21
-0.534
 31
0.0
  0
LINE
  8
0
 10
0.14400000000000002
 20
-0.534
 30
0.0
 11
0.06
 21
-0.534
 31
0.0
  0
LINE
  8
0
 10
0.024
 20
-0.534
 30
0.0
 11
0.0
 21
-0.534
 31
0.0
  0
LINE
  8
0
 10
0.0
 20
-0.54
 30
0.0
 11
0.024
 21
-0.54
 31
0.0
  0
LINE
  8
0
 10
0.06
 20
-0.54
 30
0.0
 11
0.14400000000000002
 21
-0.54
 31
0.0
  0
LINE
  8
0
 10
0.18
 20
-0.54
 30
0.0
 11
0.20400000000000001
 21
-0.54
 31
0.0
  0
LINE
  8
0
 10
0.3
 20
-0.54
 30
0.0
 11
0.324
 21
-0.54
 31
0.0
  0
LINE
  8
0
 10
0.36
 20
-0.54
 30
0.0
 11
0.41400000000000003
 21
-0.54
 31
0.0
  0
LINE
  8
0
 10
0.48
 20
-0.54
 30
0.0
 11
0.504
 21
-0.54
 31
0.0
  0
LINE
  8
0
 10
0.504
 20
-0.546
 30
0.0
 11
0.48
 21
-0.546
 31
0.0
  0
LINE
  8
0
 10
0.41400000000000003
 20
-0.546
 30
0.0
 11
0.36
 21
-0.546
 31
0.0
  0
LINE
  8
0
 10
0.324
 20
-0.546
 30
0.0
 11
0.3
 21
-0.546
 31
0.0
  0
LINE
  8
0
 10
0.20400000000000001
 20
-0.546
 30
0.0
 11
0.18
 21
-0.546
 31
0.0
  0
LINE
  8
0
 10
0.14400000000000002
 20
-0.546
 30
0.0
 11
0.06
 21
-0.546
 31
0.0
  0
LINE
  8
0
 10
0.024
 20
-0.546
 30
0.0
 11
0.0
 21
-0.546
 31
0.0
  0
LINE
  8
0
 10
0.0
 20
-0.552
 30
0.0
 11
0.024
 21
-0.552
 31
0.0
  0
LINE
  8
0
 10
0.06
 20
-0.552
 30
0.0
 11
0.14400000000000002
 21
-0.552
 31
0.0
  0
LINE
  8
0
 10
0.18
 20
-0.552
 30
0.0
 11
0.20400000000000001
 21
-0.552
 31
0.0
  0
LINE
  8
0
 10
0.3
 20
-0.552
 30
0.0
 11
0.324
 21
-0.552
 31
0.0
  0
LINE
  8
0
 10
0.36
 20
-0.552
 30
0.0
 11
0.41400000000000003
 21
-0.552
 31
0.0
  0
LINE
  8
0
 10
0.48
 20
-0.552
 30
0.0
 11
0.504
 21
-0.552
 31
0.0
  0
LINE
  8
0
 10
0.504
 20
-0.558
 30
0.0
 11
0.48
 21
-0.558
 31
0.0
  0
LINE
  8
0
 10
0.41400000000000003
 20
-0.558
 30
0.0
 11
0.36
 21
-0.558
 31
0.0
  0
LINE
  8
0
 10
0.324
 20
-0.558
 30
0.0
 11
0.3
 21
-0.558
 31
0.0
  0
LINE
  8
0
 10
0.20400000000000001
 20
-0.558
 30
0.0
 11
0.18
 21
-0.558
 31
0.0
  0
LINE
  8
0
 10
0.14400000000000002
 20
-0.558
 30
0.0
 11
0.06
 21
-0.558
 31
0.0
  0
LINE
  8
0
 10
0.024
 20
-0.558
 30
0.0
 11
0.0
 21
-0.558
 31
0.0
  0
LINE
  8
0
 10
0.0
 20
-0.5640000000000001
 30
0.0
 11
0.024
 21
-0.5640000000000001
 31
0.0
  0
LINE
  8
0
 10
0.06
 20
-0.5640000000000001
 30
0.0
 11
0.14400000000000002
 21
-0.5640000000000001
 31
0.0
  0
LINE
  8
0
 10
0.18
 20
-0.5640000000000001
 30
0.0
 11
0.20400000000000001
 21
-0.5640000000000001
 31
0.0
  0
LINE
  8
0
 10
0.3
 20
-0.5640000000000001
 30
0.0
 11
0.324
 21
-0.5640000000000001
 31
0.0
  0
LINE
  8
0
 10
0.36
 20
-0.5640000000000001
 30
0.0
 11
0.41400000000000003
 21
-0.5640000000000001
 31
0.0
  0
LINE
  8
0
 10
0.48
 20
-0.5640000000000001
 30
0.0
 11
0.504
 21
-0.5640000000000001
 31
0.0
  0
LINE
  8
0
 10
0.384
 20
-0.5700000000000001
 30
0.0
 11
0.33
 21
-0.5700000000000001
 31
0.0
  0
LINE
  8
0
 10
0.294
 20
-0.5700000000000001
 30
0.0
 11
0.24
 21
-0.5700000000000001
 31
0.0
  0
LINE
  8
0
 10
0.20400000000000001
 20
-0.5700000000000001
 30
0.0
 11
0.18
 21
-0.5700000000000001
 31
0.0
  0
LINE
  8
0
 10
0.024
 20
-0.5700000000000001
 30
0.0
 11
0.0
 21
-0.5700000000000001
 31
0.0
  0
LINE
  8
0
 10
0.0
 20
-0.5760000000000001
 30
0.0
 11
0.024
 21
-0.5760000000000001
 31
0.0
  0
LINE
  8
0
 10
0.18
 20
-0.5760000000000001
 30
0.0
 11
0.20400000000000001
 21
-0.5760000000000001
 31
0.0
  0
LINE
  8
0
 10
0.24
 20
-0.5760000000000001
 30
0.0
 11
0.294
 21
-0.5760000000000001
 31
0.0
  0
LINE
  8
0
 10
0.33
 20
-0.5760000000000001
 30
0.0
 11
0.384
 21
-0.5760000000000001
 31
0.0
  0
LINE
  8
0
 10
0.384
 20
-0.582
 30
0.0
 11
0.33
 21
-0.582
 31
0.0
  0
LINE
  8
0
 10
0.294
 20
-0.582
 30
0.0
 11
0.24
 21
-0.582
 31
0.0
  0
LINE
  8
0
 10
0.20400000000000001
 20
-0.582
 30
0.0
 11
0.18
 21
-0.582
 31
0.0
  0
LINE
  8
0
 10
0.024
 20
-0.582
 30
0.0
 11
0.0
 21
-0.582
 31
0.0
  0
LINE
  8
0
 10
0.0
 20
-0.588
 30
0.0
 11
0.024
 21
-0.588
 31
0.0
  0
LINE
  8
0
 10
0.18
 20
-0.588
 30
0.0
 11
0.20400000000000001
 21
-0.588
 31
0.0
  0
LINE
  8
0
 10
0.24
 20
-0.588
 30
0.0
 11
0.294
 21
-0.588
 31
0.0
  0
LINE
  8
0
 10
0.33
 20
-0.588
 30
0.0
 11
0.384
 21
-0.588
 31
0.0
  0
LINE
  8
0
 10
0.384
 20
-0.594
 30
0.0
 11
0.33
 21
-0.594
 31
0.0
  0
LINE
  8
0
 10
0.294
 20
-0.594
 30
0.0
 11
0.24
 21
-0.594
 31
0.0
  0
LINE
  8
0
 10
0.20400000000000001
 20
-0.594
 30
0.0
 11
0.18
 21
-0.594
 31
0.0
  0
LINE
  8
0
 10
0.024
 20
-0.594
 30
0.0
 11
0.0
 21
-0.594
 31
0.0
  0
LINE
  8
0
 10
0.0
 20
-0.6
 30
0.0
 11
0.20400000000000001
 21
-0.6
 31
0.0
  0
LINE
  8
0
 10
0.27
 20
-0.6
 30
0.0
 11
0.294
 21
-0.6
 31
0.0
  0
LINE
  8
0
 10
0.33
 20
-0.6
 30
0.0
 11
0.354
 21
-0.6
 31
0.0
  0
LINE
  8
0
 10
0.42
 20
-0.6
 30
0.0
 11
0.47400000000000003
 21
-0.6
 31
0.0
  0
LINE
  8
0
 10
0.51
 20
-0.6
 30
0.0
 11
0.534
 21
-0.6
 31
0.0
  0
LINE
  8
0
 10
0.6
 20
-0.6
 30
0.0
 11
0.624
 21
-0.6
 31
0.0
  0
LINE
  8
0
 10
0.624
 20
-0.606
 30
0.0
 11
0.6
 21
-0.606
 31
0.0
  0
LINE
  8
0
 10
0.534
 20
-0.606
 30
0.0
 11
0.51
 21
-0.606
 31
0.0
  0
LINE
  8
0
 10
0.47400000000000003
 20
-0.606
 30
0.0
 11
0.42
 21
-0.606
 31
0.0
  0
LINE
  8
0
 10
0.354
 20
-0.606
 30
0.0
 11
0.33
 21
-0.606
 31
0.0
  0
LINE
  8
0
 10
0.294
 20
-0.606
 30
0.0
 11
0.27
 21
-0.606
 31
0.0
  0
LINE
  8
0
 10
0.20400000000000001
 20
-0.606
 30
0.0
 11
0.0
 21
-0.606
 31
0.0
  0
LINE
  8
0
 10
0.0
 20
-0.612
 30
0.0
 11
0.20400000000000001
 21
-0.612
 31
0.0
  0
LINE
  8
0
 10
0.27
 20
-0.612
 30
0.0
 11
0.294
 21
-0.612
 31
0.0
  0
LINE
  8
0
 10
0.33
 20
-0.612
 30
0.0
 11
0.354
 21
-0.612
 31
0.0
  0
LINE
  8
0
 10
0.42
 20
-0.612
 30
0.0
 11
0.47400000000000003
 21
-0.612
 31
0.0
  0
LINE
  8
0
 10
0.51
 20
-0.612
 30
0.0
 11
0.534
 21
-0.612
 31
0.0
  0
LINE
  8
0
 10
0.6
 20
-0.612
 30
0.0
 11
0.624
 21
-0.612
 31
0.0
  0
LINE
  8
0
 10
0.624
 20
-0.618
 30
0.0
 11
0.6
 21
-0.618
 31
0.0
  0
LINE
  8
0
 10
0.534
 20
-0.618
 30
0.0
 11
0.51
 21
-0.618
 31
0.0
  0
LINE
  8
0
 10
0.47400000000000003
 20
-0.618
 30
0.0
 11
0.42
 21
-0.618
 31
0.0
  0
LINE
  8
0
 10
0.354
 20
-0.618
 30
0.0
 11
0.33
 21
-0.618
 31
0.0
  0
LINE
  8
0
 10
0.294
 20
-0.618
 30
0.0
 11
0.27
 21
-0.618
 31
0.0
  0
LINE
  8
0
 10
0.20400000000000001
 20
-0.618
 30
0.0
 11
0.0
 21
-0.618
 31
0.0
  0
LINE
  8
0
 10
0.0
 20
-0.624
 30
0.0
 11
0.20400000000000001
 21
-0.624
 31
0.0
  0
LINE
  8
0
 10
0.27
 20
-0.624
 30
0.0
 11
0.294
 21
-0.624
 31
0.0
  0
LINE
  8
0
 10
0.33
 20
-0.624
 30
0.0
 11
0.354
 21
-0.624
 31
0.0
  0
LINE
  8
0
 10
0.42
 20
-0.624
 30
0.0
 11
0.47400000000000003
 21
-0.624
 31
0.0
  0
LINE
  8
0
 10
0.51
 20
-0.624
 30
0.0
 11
0.534
 21
-0.624
 31
0.0
  0
LINE
  8
0
 10
0.6
 20
-0.624
 30
0.0
 11
0.624
 21
-0.624
 31
0.0
  0
ENDSEC
  0
EOF
